<svg
    width="741"
    height="307"
    viewBox="0 0 741 307"
    fill="none"
    xmlns="http://www.w3.org/2000/svg"
>
    <g id="Logo v2">
        <g id="Glass">
            <g id="Union">
                <mask id="path-1-inside-1" fill="white">
                    <path
                        fill-rule="evenodd"
                        clip-rule="evenodd"
                        d="M100.285 50.3285C95.4525 48.0147 81.9593 55.9265 68.9429 68.9429C55.9265 81.9593 48.0147 95.4525 50.3285 100.285L50.2046 100.409L50.9117 101.116L78.9587 129.163C63.3325 164.864 70.1292 208.015 99.3485 237.234C137.425 275.31 199.158 275.31 237.234 237.234C275.31 199.158 275.31 137.425 237.234 99.3485C208.015 70.1291 164.864 63.3325 129.163 78.9587L101.116 50.9117L100.409 50.2046L100.285 50.3285Z"
                    />
                </mask>
                <path
                    d="M100.285 50.3285L97.2624 56.6422L101.731 58.7818L105.235 55.2782L100.285 50.3285ZM50.3285 100.285L55.2783 105.235L58.7819 101.731L56.6422 97.2623L50.3285 100.285ZM50.2046 100.409L45.2548 95.4594L40.3051 100.409L45.2548 105.359L50.2046 100.409ZM50.9117 101.116L45.9619 106.066L50.9117 101.116ZM78.9587 129.163L85.3713 131.97L87.2874 127.592L83.9084 124.214L78.9587 129.163ZM129.163 78.9587L124.214 83.9084L127.592 87.2874L131.97 85.3713L129.163 78.9587ZM101.116 50.9117L96.1665 55.8614L101.116 50.9117ZM100.409 50.2046L105.359 45.2548L100.409 40.3051L95.4594 45.2548L100.409 50.2046ZM103.308 44.0148C99.7283 42.3009 95.873 42.9449 93.2391 43.7048C90.3198 44.5471 87.2096 46.0336 84.1186 47.8623C77.8965 51.5435 70.8122 57.1741 63.9932 63.9932L73.8927 73.8926C80.09 67.6953 86.2605 62.8618 91.2473 59.9115C93.7608 58.4244 95.7435 57.5533 97.1201 57.1561C98.7822 56.6765 98.4258 57.1992 97.2624 56.6422L103.308 44.0148ZM63.9932 63.9932C57.1741 70.8122 51.5435 77.8965 47.8623 84.1186C46.0336 87.2096 44.5471 90.3198 43.7048 93.2391C42.9449 95.8729 42.3009 99.7283 44.0149 103.308L56.6422 97.2623C57.1992 98.4258 56.6766 98.7822 57.1561 97.1201C57.5533 95.7435 58.4244 93.7607 59.9115 91.2473C62.8618 86.2605 67.6953 80.09 73.8927 73.8926L63.9932 63.9932ZM55.1543 105.359L55.2783 105.235L45.3788 95.3355L45.2548 95.4594L55.1543 105.359ZM55.8614 96.1665L55.1543 95.4594L45.2548 105.359L45.9619 106.066L55.8614 96.1665ZM83.9084 124.214L55.8614 96.1665L45.9619 106.066L74.009 134.113L83.9084 124.214ZM72.5461 126.356C55.8032 164.608 63.0738 210.859 94.3988 242.184L104.298 232.285C77.1845 205.171 70.8619 165.119 85.3713 131.97L72.5461 126.356ZM94.3988 242.184C135.209 282.994 201.374 282.994 242.184 242.184L232.285 232.285C196.942 267.627 139.641 267.627 104.298 232.285L94.3988 242.184ZM242.184 242.184C282.994 201.374 282.994 135.209 242.184 94.3988L232.285 104.298C267.627 139.641 267.627 196.942 232.285 232.285L242.184 242.184ZM242.184 94.3988C210.859 63.0738 164.608 55.8032 126.356 72.5461L131.97 85.3713C165.119 70.8618 205.171 77.1845 232.285 104.298L242.184 94.3988ZM96.1665 55.8614L124.214 83.9084L134.113 74.0089L106.066 45.9619L96.1665 55.8614ZM95.4594 55.1543L96.1665 55.8614L106.066 45.9619L105.359 45.2548L95.4594 55.1543ZM105.235 55.2782L105.359 55.1543L95.4594 45.2548L95.3355 45.3788L105.235 55.2782Z"
                    fill="#00A2C5"
                    mask="url(#path-1-inside-1)"
                />
            </g>
            <path
                id="Ellipse 50"
                d="M97.0794 53.9812C97.8961 53.8175 98.3549 53.8307 98.5828 53.8629C98.615 54.0908 98.6282 54.5496 98.4645 55.3662C98.1417 56.9759 97.2563 59.2131 95.711 61.9704C92.645 67.441 87.3818 74.2562 80.6104 81.0277C73.8389 87.7991 67.0237 93.0623 61.553 96.1283C58.7957 97.6736 56.5586 98.5591 54.9489 98.8818C54.1323 99.0455 53.6735 99.0323 53.4456 99.0001C53.4134 98.7722 53.4002 98.3134 53.5639 97.4967C53.8866 95.887 54.7721 93.6499 56.3174 90.8926C59.3834 85.4219 64.6465 78.6067 71.418 71.8353C78.1894 65.0638 85.0046 59.8007 90.4753 56.7347C93.2326 55.1894 95.4697 54.3039 97.0794 53.9812Z"
                stroke="#00A2C5"
                stroke-width="7"
            />
            <g id="liquid">
                <path
                    id="Ellipse 51"
                    d="M248.51 175.915C248.51 175.915 248.509 175.92 248.505 175.932C248.507 175.92 248.509 175.915 248.51 175.915ZM247.911 175.33C248.269 175.665 248.417 175.888 248.475 176C248.417 176.112 248.269 176.335 247.911 176.67C247.191 177.344 245.934 178.161 243.994 179.04C240.135 180.788 234.331 182.449 226.885 183.876C212.05 186.719 191.406 188.5 168.5 188.5C145.594 188.5 124.95 186.719 110.115 183.876C102.669 182.449 96.8651 180.788 93.0062 179.04C91.0657 178.161 89.8088 177.344 89.0887 176.67C88.7311 176.335 88.5833 176.112 88.5252 176C88.5833 175.888 88.7311 175.665 89.0887 175.33C89.8088 174.656 91.0657 173.839 93.0062 172.96C96.8651 171.212 102.669 169.551 110.115 168.124C124.95 165.281 145.594 163.5 168.5 163.5C191.406 163.5 212.05 165.281 226.885 168.124C234.331 169.551 240.135 171.212 243.994 172.96C245.934 173.839 247.191 174.656 247.911 175.33ZM88.4904 175.915C88.4909 175.915 88.4929 175.92 88.4949 175.932C88.491 175.92 88.4899 175.915 88.4904 175.915ZM88.4904 176.085C88.4899 176.085 88.491 176.08 88.4949 176.068C88.4929 176.08 88.4909 176.085 88.4904 176.085ZM248.505 176.068C248.509 176.08 248.51 176.085 248.51 176.085C248.509 176.085 248.507 176.08 248.505 176.068Z"
                    stroke="#FFA23C"
                    stroke-width="7"
                />
                <path
                    id="Ellipse 59"
                    d="M248 176C244.992 213.39 212.214 247 168.07 247C123.926 247 90.2892 210.274 89 176.445"
                    stroke="#FFA23C"
                    stroke-width="7"
                />
                <path
                    id="Union_2"
                    d="M173.824 200L175.016 196.709C174.143 196.393 173.18 196.437 172.34 196.83C171.499 197.224 170.849 197.936 170.533 198.808L173.824 200ZM161.251 234.725L157.96 233.534C157.302 235.351 158.242 237.358 160.06 238.016L161.251 234.725ZM174.765 200.34L178.055 201.532C178.714 199.714 177.774 197.708 175.956 197.049L174.765 200.34ZM162.191 235.066L161 238.357C161.873 238.673 162.835 238.629 163.676 238.236C164.517 237.842 165.166 237.13 165.482 236.257L162.191 235.066ZM151.281 206.929L154.262 205.095C153.249 203.448 151.093 202.935 149.447 203.948L151.281 206.929ZM135.714 216.508L133.88 213.528H133.88L135.714 216.508ZM151.805 207.781L153.64 210.761C154.43 210.275 154.995 209.494 155.21 208.591C155.425 207.688 155.273 206.737 154.786 205.946L151.805 207.781ZM136.953 216.92L135.119 213.94C134.069 214.586 133.436 215.737 133.453 216.97C133.471 218.203 134.136 219.336 135.204 219.952L136.953 216.92ZM151.793 225.482L154.825 227.231C155.791 225.557 155.216 223.416 153.542 222.45L151.793 225.482ZM151.293 226.348L149.544 229.38C150.348 229.844 151.304 229.969 152.2 229.729C153.097 229.488 153.861 228.901 154.325 228.097L151.293 226.348ZM135.727 217.367L137.476 214.336L137.476 214.336L135.727 217.367ZM135 216.948L133.166 213.967C132.115 214.614 131.483 215.765 131.5 216.998C131.518 218.231 132.183 219.364 133.251 219.98L135 216.948ZM184.809 208.379L181.828 206.545C180.815 208.191 181.329 210.347 182.975 211.36L184.809 208.379ZM199.661 217.519L201.41 220.551C202.479 219.935 203.144 218.802 203.161 217.569C203.179 216.336 202.546 215.185 201.496 214.538L199.661 217.519ZM185.333 207.528L187.168 204.547C186.377 204.06 185.426 203.908 184.523 204.123C183.62 204.338 182.839 204.903 182.353 205.693L185.333 207.528ZM200.9 217.107L199.066 220.088L199.066 220.088L200.9 217.107ZM201.614 217.547L203.363 220.578C204.432 219.962 205.097 218.829 205.114 217.596C205.132 216.363 204.499 215.212 203.449 214.566L201.614 217.547ZM200.888 217.966L202.637 220.998H202.637L200.888 217.966ZM185.321 226.947L182.289 228.696C182.753 229.5 183.518 230.087 184.414 230.327C185.311 230.568 186.266 230.442 187.07 229.978L185.321 226.947ZM184.821 226.081L183.072 223.049C181.398 224.015 180.824 226.155 181.79 227.83L184.821 226.081ZM170.533 198.808L157.96 233.534L164.542 235.917L177.115 201.191L170.533 198.808ZM175.956 197.049L175.016 196.709L172.633 203.291L173.573 203.631L175.956 197.049ZM165.482 236.257L178.055 201.532L171.474 199.149L158.901 233.874L165.482 236.257ZM160.06 238.016L161 238.357L163.383 231.775L162.443 231.435L160.06 238.016ZM149.447 203.948L133.88 213.528L137.549 219.489L153.115 209.91L149.447 203.948ZM154.786 205.946L154.262 205.095L148.3 208.763L148.824 209.615L154.786 205.946ZM138.787 219.901L153.64 210.761L149.971 204.8L135.119 213.94L138.787 219.901ZM153.542 222.45L138.702 213.889L135.204 219.952L150.044 228.514L153.542 222.45ZM154.325 228.097L154.825 227.231L148.761 223.733L148.262 224.599L154.325 228.097ZM133.978 220.399L149.544 229.38L153.042 223.316L137.476 214.336L133.978 220.399ZM133.251 219.98L133.978 220.399L137.476 214.336L136.749 213.916L133.251 219.98ZM133.88 213.528L133.166 213.967L136.834 219.929L137.549 219.489L133.88 213.528ZM182.975 211.36L197.827 220.5L201.496 214.538L186.644 205.398L182.975 211.36ZM182.353 205.693L181.828 206.545L187.79 210.214L188.314 209.362L182.353 205.693ZM202.734 214.126L187.168 204.547L183.499 210.508L199.066 220.088L202.734 214.126ZM203.449 214.566L202.734 214.126L199.066 220.088L199.78 220.528L203.449 214.566ZM202.637 220.998L203.363 220.578L199.865 214.515L199.139 214.934L202.637 220.998ZM187.07 229.978L202.637 220.998L199.139 214.934L183.572 223.915L187.07 229.978ZM181.79 227.83L182.289 228.696L188.353 225.198L187.853 224.332L181.79 227.83ZM197.912 214.487L183.072 223.049L186.57 229.112L201.41 220.551L197.912 214.487Z"
                    fill="#FFA23C"
                />
            </g>
        </g>
        <g id="bubbles">
            <circle
                id="Ellipse 53"
                cx="147.799"
                cy="135.799"
                r="10.5"
                transform="rotate(-45 147.799 135.799)"
                stroke="#FFA23C"
                stroke-width="7"
            />
            <circle
                id="Ellipse 54"
                cx="116.87"
                cy="107.87"
                r="15.5"
                transform="rotate(-45 116.87 107.87)"
                stroke="#FFA23C"
                stroke-width="7"
            />
            <circle
                id="Ellipse 55"
                cx="57.6274"
                cy="27.6274"
                r="12.5"
                transform="rotate(-45 57.6274 27.6274)"
                stroke="#FFA23C"
                stroke-width="7"
            />
            <circle
                id="Ellipse 56"
                cx="51.6156"
                cy="62.6156"
                r="5.42056"
                transform="rotate(-45 51.6156 62.6156)"
                stroke="#FFA23C"
                stroke-width="7"
            />
            <circle
                id="Ellipse 57"
                cx="82.5118"
                cy="103.512"
                r="6.05428"
                transform="rotate(-45 82.5118 103.512)"
                stroke="#FFA23C"
                stroke-width="7"
            />
            <circle
                id="Ellipse 58"
                cx="108.314"
                cy="146.157"
                r="5.80332"
                transform="rotate(-45 108.314 146.157)"
                stroke="#FFA23C"
                stroke-width="7"
            />
        </g>
        <path
            id="Front"
            fill-rule="evenodd"
            clip-rule="evenodd"
            d="M293.276 165.179V73H344.361V85.6744H308.278V109.6H339.059V122.275H308.278V152.736C303.722 154.859 299.681 157.817 296.156 161.611C295.14 162.731 294.18 163.92 293.276 165.179ZM354.964 157.582V94.0808H367.25L368.285 105.333H368.802C371.044 101.194 373.76 98.047 376.95 95.8915C380.14 93.6497 383.417 92.5289 386.779 92.5289C389.797 92.5289 392.211 92.96 394.022 93.8222L391.435 106.755C390.314 106.41 389.279 106.152 388.331 105.979C387.383 105.807 386.219 105.721 384.839 105.721C382.339 105.721 379.709 106.712 376.95 108.695C374.191 110.592 371.82 113.955 369.837 118.783V157.582H354.964ZM415.48 156.935C419.101 158.401 422.895 159.134 426.861 159.134C430.827 159.134 434.621 158.401 438.242 156.935C441.95 155.47 445.183 153.314 447.942 150.469C450.701 147.624 452.9 144.132 454.538 139.993C456.262 135.855 457.124 131.156 457.124 125.896C457.124 120.637 456.262 115.938 454.538 111.799C452.9 107.661 450.701 104.169 447.942 101.323C445.183 98.4781 441.95 96.3226 438.242 94.8568C434.621 93.3049 430.827 92.5289 426.861 92.5289C422.895 92.5289 419.101 93.3049 415.48 94.8568C411.859 96.3226 408.626 98.4781 405.78 101.323C403.021 104.169 400.823 107.661 399.184 111.799C397.546 115.938 396.727 120.637 396.727 125.896C396.727 131.156 397.546 135.855 399.184 139.993C400.823 144.132 403.021 147.624 405.78 150.469C408.626 153.314 411.859 155.47 415.48 156.935ZM437.854 141.286C435.181 145.08 431.517 146.977 426.861 146.977C422.205 146.977 418.541 145.08 415.868 141.286C413.281 137.406 411.988 132.276 411.988 125.896C411.988 119.43 413.281 114.299 415.868 110.506C418.541 106.626 422.205 104.686 426.861 104.686C431.517 104.686 435.181 106.626 437.854 110.506C440.527 114.299 441.863 119.43 441.863 125.896C441.863 132.276 440.527 137.406 437.854 141.286ZM467.528 157.582V94.0808H479.815L480.849 102.617H481.367C484.212 99.8576 487.273 97.4865 490.549 95.5035C493.912 93.5204 497.791 92.5289 502.189 92.5289C509 92.5289 513.958 94.7275 517.062 99.1247C520.166 103.436 521.718 109.644 521.718 117.748V157.582H506.845V119.688C506.845 114.429 506.069 110.721 504.517 108.566C502.965 106.41 500.421 105.333 496.886 105.333C494.127 105.333 491.67 106.022 489.514 107.402C487.445 108.695 485.074 110.635 482.401 113.222V157.582H467.528ZM546.934 157.453C549.521 158.574 552.668 159.134 556.375 159.134C558.876 159.134 561.204 158.875 563.359 158.358C565.601 157.927 567.584 157.41 569.308 156.806L566.722 145.813C565.773 146.244 564.696 146.589 563.489 146.848C562.368 147.106 561.247 147.236 560.126 147.236C554.177 147.236 551.202 143.528 551.202 136.113V105.85H567.368V94.0808H551.202V76.7506H538.786L536.976 94.0808L527.147 94.7275V105.85H536.2V136.113C536.2 139.562 536.545 142.709 537.235 145.554C538.01 148.313 539.174 150.727 540.726 152.797C542.365 154.78 544.434 156.332 546.934 157.453Z"
            fill="#FFA23C"
        />
        <g id="Cooking">
            <path
                d="M327.723 242.937C322.294 242.937 317.216 241.974 312.487 240.048C307.759 238.121 303.644 235.276 300.141 231.51C296.726 227.745 294.012 223.105 291.998 217.588C289.984 212.072 288.977 205.767 288.977 198.675C288.977 191.67 289.984 185.409 291.998 179.893C294.099 174.289 296.901 169.56 300.404 165.708C303.994 161.855 308.153 158.922 312.881 156.908C317.697 154.894 322.82 153.887 328.249 153.887C333.677 153.887 338.493 154.981 342.696 157.17C346.899 159.359 350.358 161.899 353.072 164.788L344.929 174.639C342.653 172.362 340.201 170.567 337.574 169.254C334.947 167.853 331.97 167.152 328.643 167.152C325.14 167.152 321.9 167.897 318.923 169.385C316.034 170.786 313.494 172.844 311.305 175.558C309.204 178.185 307.54 181.425 306.314 185.278C305.176 189.13 304.607 193.465 304.607 198.281C304.607 208.088 306.708 215.793 310.911 221.397C315.202 226.913 320.981 229.672 328.249 229.672C332.101 229.672 335.516 228.884 338.493 227.307C341.47 225.644 344.185 223.499 346.637 220.872L354.78 230.46C351.277 234.488 347.25 237.596 342.696 239.785C338.231 241.887 333.24 242.937 327.723 242.937Z"
                fill="#00A1C5"
            />
            <path
                d="M394.205 242.937C390.177 242.937 386.325 242.193 382.647 240.704C378.97 239.216 375.686 237.027 372.796 234.137C369.994 231.248 367.762 227.701 366.098 223.499C364.434 219.296 363.602 214.523 363.602 209.182C363.602 203.841 364.434 199.069 366.098 194.866C367.762 190.663 369.994 187.117 372.796 184.227C375.686 181.337 378.97 179.148 382.647 177.66C386.325 176.084 390.177 175.296 394.205 175.296C398.233 175.296 402.086 176.084 405.763 177.66C409.529 179.148 412.812 181.337 415.614 184.227C418.416 187.117 420.649 190.663 422.313 194.866C424.064 199.069 424.94 203.841 424.94 209.182C424.94 214.523 424.064 219.296 422.313 223.499C420.649 227.701 418.416 231.248 415.614 234.137C412.812 237.027 409.529 239.216 405.763 240.704C402.086 242.193 398.233 242.937 394.205 242.937ZM394.205 230.591C398.934 230.591 402.655 228.665 405.369 224.812C408.084 220.872 409.441 215.662 409.441 209.182C409.441 202.615 408.084 197.405 405.369 193.552C402.655 189.612 398.934 187.642 394.205 187.642C389.477 187.642 385.756 189.612 383.041 193.552C380.414 197.405 379.101 202.615 379.101 209.182C379.101 215.662 380.414 220.872 383.041 224.812C385.756 228.665 389.477 230.591 394.205 230.591Z"
                fill="#00A1C5"
            />
            <path
                d="M463.663 242.937C459.635 242.937 455.783 242.193 452.105 240.704C448.427 239.216 445.144 237.027 442.254 234.137C439.452 231.248 437.219 227.701 435.556 223.499C433.892 219.296 433.06 214.523 433.06 209.182C433.06 203.841 433.892 199.069 435.556 194.866C437.219 190.663 439.452 187.117 442.254 184.227C445.144 181.337 448.427 179.148 452.105 177.66C455.783 176.084 459.635 175.296 463.663 175.296C467.691 175.296 471.544 176.084 475.221 177.66C478.986 179.148 482.27 181.337 485.072 184.227C487.874 187.117 490.107 190.663 491.771 194.866C493.522 199.069 494.397 203.841 494.397 209.182C494.397 214.523 493.522 219.296 491.771 223.499C490.107 227.701 487.874 231.248 485.072 234.137C482.27 237.027 478.986 239.216 475.221 240.704C471.544 242.193 467.691 242.937 463.663 242.937ZM463.663 230.591C468.391 230.591 472.113 228.665 474.827 224.812C477.542 220.872 478.899 215.662 478.899 209.182C478.899 202.615 477.542 197.405 474.827 193.552C472.113 189.612 468.391 187.642 463.663 187.642C458.935 187.642 455.213 189.612 452.499 193.552C449.872 197.405 448.559 202.615 448.559 209.182C448.559 215.662 449.872 220.872 452.499 224.812C455.213 228.665 458.935 230.591 463.663 230.591Z"
                fill="#00A1C5"
            />
            <path
                d="M575.343 241.361V176.872H590.447V241.361H575.343Z"
                fill="#00A1C5"
            />
            <path
                d="M609.717 241.361V176.872H622.195L623.246 185.54H623.771C626.661 182.738 629.769 180.33 633.097 178.317C636.511 176.303 640.452 175.296 644.917 175.296C651.835 175.296 656.87 177.529 660.022 181.994C663.174 186.372 664.75 192.677 664.75 200.908V241.361H649.646V202.878C649.646 197.536 648.858 193.771 647.282 191.582C645.705 189.393 643.122 188.299 639.532 188.299C636.73 188.299 634.235 188.999 632.046 190.4C629.944 191.714 627.536 193.684 624.822 196.311V241.361H609.717Z"
                fill="#00A1C5"
            />
            <path
                d="M705.673 269.863C701.82 269.863 698.23 269.512 694.903 268.812C691.663 268.111 688.861 267.061 686.497 265.66C684.133 264.259 682.25 262.507 680.849 260.406C679.536 258.304 678.879 255.853 678.879 253.051C678.879 250.336 679.667 247.797 681.243 245.433C682.819 243.156 685.096 241.098 688.073 239.26V238.734C686.409 237.684 685.008 236.283 683.87 234.531C682.819 232.78 682.294 230.591 682.294 227.964C682.294 225.425 682.994 223.148 684.395 221.134C685.884 219.033 687.547 217.325 689.386 216.012V215.487C687.197 213.823 685.227 211.546 683.476 208.657C681.812 205.68 680.98 202.265 680.98 198.412C680.98 194.734 681.681 191.451 683.082 188.561C684.483 185.672 686.322 183.264 688.598 181.337C690.962 179.324 693.677 177.835 696.741 176.872C699.806 175.821 703.046 175.296 706.461 175.296C708.212 175.296 709.876 175.471 711.452 175.821C713.116 176.084 714.604 176.434 715.918 176.872H739.034V188.036H727.213C728.264 189.262 729.139 190.838 729.84 192.764C730.54 194.603 730.891 196.661 730.891 198.937C730.891 202.527 730.234 205.68 728.92 208.394C727.695 211.109 725.987 213.385 723.798 215.224C721.609 217.063 719.026 218.464 716.049 219.427C713.072 220.39 709.876 220.872 706.461 220.872C705.06 220.872 703.615 220.74 702.126 220.478C700.638 220.215 699.149 219.777 697.661 219.164C696.698 220.04 695.91 220.915 695.297 221.791C694.771 222.667 694.509 223.849 694.509 225.337C694.509 227.176 695.253 228.621 696.741 229.672C698.318 230.722 701.076 231.248 705.016 231.248H716.443C724.236 231.248 730.103 232.517 734.043 235.057C738.071 237.508 740.085 241.536 740.085 247.14C740.085 250.292 739.253 253.27 737.589 256.072C736.013 258.874 733.736 261.282 730.759 263.295C727.782 265.309 724.148 266.885 719.858 268.024C715.655 269.25 710.926 269.863 705.673 269.863ZM706.461 211.415C709.525 211.415 712.152 210.32 714.341 208.131C716.53 205.855 717.625 202.615 717.625 198.412C717.625 194.384 716.53 191.276 714.341 189.087C712.24 186.81 709.613 185.672 706.461 185.672C703.309 185.672 700.638 186.766 698.449 188.955C696.26 191.144 695.165 194.297 695.165 198.412C695.165 202.615 696.26 205.855 698.449 208.131C700.638 210.32 703.309 211.415 706.461 211.415ZM708.037 260.012C713.291 260.012 717.494 258.961 720.646 256.86C723.886 254.846 725.506 252.438 725.506 249.636C725.506 247.096 724.499 245.389 722.485 244.513C720.558 243.638 717.756 243.2 714.079 243.2H705.279C701.776 243.2 698.843 242.894 696.479 242.281C693.151 244.82 691.488 247.666 691.488 250.818C691.488 253.707 692.932 255.94 695.822 257.516C698.799 259.18 702.871 260.012 708.037 260.012Z"
                fill="#00A1C5"
            />
        </g>
        <path
            id="Cooking_2"
            d="M506.721 241.361V163.082H521.563V206.555H521.957L545.861 176.872H562.411L540.345 203.14L564.643 241.361H548.226L531.676 213.385L521.563 224.943V241.361H506.721Z"
            fill="#00A1C5"
        />
        <path
            id="dot"
            d="M591.395 151.963C591.395 156.67 587.58 160.485 582.873 160.485C578.167 160.485 574.351 156.67 574.351 151.963C574.351 147.257 578.167 143.441 582.873 143.441C587.58 143.441 591.395 147.257 591.395 151.963Z"
            fill="#00A1C5"
        />
    </g>
</svg>
